<?xml version="1.0" encoding="utf-8"?>
<!-- Generator: Adobe Illustrator 21.0.0, SVG Export Plug-In . SVG Version: 6.00 Build 0)  -->
<svg version="1.1" xmlns="http://www.w3.org/2000/svg" xmlns:xlink="http://www.w3.org/1999/xlink" x="0px" y="0px"
	 viewBox="0 0 200 129" style="enable-background:new 0 0 200 129;" xml:space="preserve">
<style type="text/css">
	.st0{display:none;}
	.st1{display:inline;fill:#FEA621;}
	.st2{display:inline;}
	.st3{fill:#333333;}
	.st4{display:inline;fill:#4D4D4D;}
	.st5{display:inline;fill:#808080;}
	.st6{fill:#FEA621;}
	.st7{fill:#808080;}
	.st8{fill:#4D4D4D;}
</style>
<g id="Layer_1" class="st0">
	<path class="st1" d="M220-82.3C220-82.3,220-82.3,220-82.3C220-82.3,220-82.3,220-82.3L220-82.3z"/>
	<g class="st2">
		<path class="st3" d="M64.7-90.1c0,1.7,0.2,3.3,0.6,4.6c0.4,1.3,1,2.4,1.9,3.3c0.9,0.9,2.1,1.5,3.5,2c1.5,0.4,3.3,0.7,5.4,0.7
			c2.2,0,4-0.2,5.4-0.7c1.5-0.4,2.6-1.1,3.5-2c0.9-0.9,1.5-2,1.9-3.3c0.4-1.3,0.6-2.8,0.6-4.6v-27.3H99v27.3c0,3.2-0.4,6.1-1.1,8.6
			c-0.7,2.5-1.9,4.7-3.7,6.4c-1.7,1.7-4.1,3.1-7,4c-2.9,0.9-6.6,1.4-11.1,1.4s-8.1-0.5-11.1-1.4c-2.9-0.9-5.3-2.2-7-4
			c-1.7-1.7-3-3.9-3.7-6.4c-0.7-2.5-1.1-5.4-1.1-8.6v-27.3h11.3V-90.1z"/>
		<path class="st3" d="M108.6-70.9v-46.5h36.1v9.9H120v10.5h20.8v9.9H120v16.3H108.6z"/>
		<path class="st3" d="M153-104.5c0-1.6,0.4-3.2,1.2-4.9c0.8-1.7,2-3.2,3.8-4.5c1.8-1.4,4.1-2.5,7-3.3c2.9-0.9,6.5-1.3,10.7-1.3
			c4.4,0,8.1,0.4,11.1,1.3c3,0.8,5.5,1.9,7.3,3.3c1.8,1.4,3.1,2.9,3.9,4.7c0.8,1.8,1.1,3.6,0.9,5.4l-11.3,1.2
			c0.1-0.8-0.1-1.6-0.4-2.3c-0.3-0.7-1-1.3-1.9-1.9c-0.9-0.5-2.2-1-3.7-1.3c-1.5-0.3-3.5-0.5-5.8-0.5c-2.1,0-3.9,0.1-5.4,0.3
			c-1.5,0.2-2.6,0.5-3.5,0.9c-0.9,0.4-1.5,0.8-1.9,1.3c-0.4,0.5-0.6,1-0.6,1.6c0,1,0.5,1.8,1.5,2.3c1,0.5,2.3,1,3.9,1.3
			c1.6,0.3,3.5,0.6,5.5,0.9c2.1,0.3,4.2,0.6,6.4,1c2.2,0.4,4.3,0.9,6.4,1.5s3.9,1.5,5.5,2.6c1.6,1.1,2.9,2.5,3.9,4.2
			c1,1.7,1.5,3.8,1.5,6.3c0,1.6-0.4,3.2-1.1,5c-0.8,1.7-2,3.3-3.8,4.7c-1.8,1.4-4.1,2.6-7,3.5c-2.9,0.9-6.5,1.4-10.7,1.4
			c-4.3,0-8-0.4-11.1-1.3c-3-0.9-5.5-2-7.3-3.4c-1.9-1.4-3.2-3-3.9-4.9c-0.8-1.8-1.1-3.7-0.9-5.6l11.3-1.2c-0.1,0.8,0.1,1.6,0.4,2.3
			c0.4,0.8,1,1.5,1.9,2.1c0.9,0.6,2.2,1.1,3.7,1.5c1.5,0.4,3.5,0.6,5.8,0.6c2.2,0,4-0.1,5.4-0.3c1.4-0.2,2.6-0.6,3.5-1
			c0.9-0.4,1.5-0.9,1.9-1.5c0.4-0.6,0.6-1.2,0.6-1.9c0-1.2-0.5-2.1-1.5-2.8c-1-0.7-2.3-1.2-3.9-1.6c-1.6-0.4-3.5-0.7-5.5-0.9
			c-2.1-0.2-4.2-0.5-6.4-0.8c-2.2-0.3-4.3-0.7-6.4-1.3c-2.1-0.5-3.9-1.3-5.5-2.4s-2.9-2.4-3.9-4.1C153.5-99.9,153-102,153-104.5z"/>
	</g>
	<path class="st1" d="M4-162.3H3.9C3.6-163.1,3.7-163.1,4-162.3z"/>
	<path class="st1" d="M35-158.3l-0.5,73.5c-0.2,0-0.3,0-0.5,0c-1.2,0-2.4,0.1-3.5,0.3c-0.9,0.2-1.7,0.4-2.6,0.7
		c-0.2,0.1-0.3,0.1-0.5,0.2c-1.7,0.7-3.4,1.6-4.8,2.8c1.6-53.4-21.5-77.5-21.5-77.5H35z"/>
	<path class="st1" d="M239-59v37.2c0,0-38.2-30.3-190.6-26.5c1.1-0.8,2.2-1.7,3.1-2.8c0.8-0.9,1.6-2,2.2-3c0.9-1.6,1.6-3.4,2-5.3
		L239-59z"/>
	<path class="st4" d="M52.3-63.5c0,0.4,0,0.7,0,1.1c0,0.6-0.1,1.2-0.2,1.8c0,0.3-0.1,0.6-0.2,0.9c-0.4,1.9-1.1,3.7-2,5.3
		c-0.6,1.1-1.4,2.1-2.2,3c-0.9,1-1.9,2-3.1,2.8c-3,2.1-6.6,3.4-10.6,3.4c-10.1,0-18.3-8.2-18.3-18.3c0-5.8,2.7-11,6.9-14.3
		c1.4-1.1,3-2.1,4.8-2.8c0.2-0.1,0.3-0.1,0.5-0.2c0.8-0.3,1.7-0.5,2.6-0.7c1.1-0.2,2.3-0.3,3.5-0.3c0.2,0,0.3,0,0.5,0
		c0.3,0,0.5,0,0.8,0c1,0.1,2,0.2,3,0.5l0.8,0.2C46.7-78.9,52.3-71.9,52.3-63.5z"/>

		<text transform="matrix(0.9206 0 0 1 44.1406 -143.681)" class="st4" style="font-family:'SpecifyPERSONALExpanded-Medium'; font-size:7.329px;">UNIVERSAL FORKLIFT SERVICES</text>
	<polygon class="st5" points="223,-137.3 223,-65.3 215,-65.3 215,-130.3 44,-130.3 44,-137.3 	"/>
	<path class="st1" d="M229,101.2C229,101.2,229,101.2,229,101.2C229,101.2,229,101.2,229,101.2L229,101.2z"/>
	<g class="st2">
		<path class="st3" d="M73.7,93.4c0,1.7,0.2,3.3,0.6,4.6c0.4,1.3,1,2.4,1.9,3.3c0.9,0.9,2.1,1.5,3.5,2c1.5,0.4,3.3,0.7,5.4,0.7
			c2.2,0,4-0.2,5.4-0.7c1.5-0.4,2.6-1.1,3.5-2c0.9-0.9,1.5-2,1.9-3.3c0.4-1.3,0.6-2.8,0.6-4.6V66H108v27.3c0,3.2-0.4,6.1-1.1,8.6
			c-0.7,2.5-1.9,4.7-3.7,6.4c-1.7,1.7-4.1,3.1-7,4c-2.9,0.9-6.6,1.4-11.1,1.4s-8.1-0.5-11.1-1.4c-2.9-0.9-5.3-2.2-7-4
			c-1.7-1.7-3-3.9-3.7-6.4c-0.7-2.5-1.1-5.4-1.1-8.6V66h11.3V93.4z"/>
		<path class="st3" d="M117.6,112.6V66h36.1v9.9H129v10.5h20.8v9.9H129v16.3H117.6z"/>
		<path class="st3" d="M162,79c0-1.6,0.4-3.2,1.2-4.9c0.8-1.7,2-3.2,3.8-4.5c1.8-1.4,4.1-2.5,7-3.3c2.9-0.9,6.5-1.3,10.7-1.3
			c4.4,0,8.1,0.4,11.1,1.3c3,0.8,5.5,1.9,7.3,3.3s3.1,2.9,3.9,4.7c0.8,1.8,1.1,3.6,0.9,5.4l-11.3,1.2c0.1-0.8-0.1-1.6-0.4-2.3
			c-0.3-0.7-1-1.3-1.9-1.9c-0.9-0.5-2.2-1-3.7-1.3s-3.5-0.5-5.8-0.5c-2.1,0-3.9,0.1-5.4,0.3c-1.5,0.2-2.6,0.5-3.5,0.9
			c-0.9,0.4-1.5,0.8-1.9,1.3c-0.4,0.5-0.6,1-0.6,1.6c0,1,0.5,1.8,1.5,2.3c1,0.5,2.3,1,3.9,1.3c1.6,0.3,3.5,0.6,5.5,0.9
			c2.1,0.3,4.2,0.6,6.4,1c2.2,0.4,4.3,0.9,6.4,1.5s3.9,1.5,5.5,2.6s2.9,2.5,3.9,4.2s1.5,3.8,1.5,6.3c0,1.6-0.4,3.3-1.1,5
			c-0.8,1.7-2,3.3-3.8,4.7c-1.8,1.4-4.1,2.6-7,3.5c-2.9,0.9-6.5,1.4-10.7,1.4c-4.3,0-8-0.4-11.1-1.3c-3-0.9-5.5-2-7.3-3.4
			c-1.9-1.4-3.2-3-3.9-4.9c-0.8-1.8-1.1-3.7-0.9-5.6l11.3-1.2c-0.1,0.8,0.1,1.6,0.4,2.3s1,1.5,1.9,2.1c0.9,0.6,2.2,1.1,3.7,1.5
			c1.5,0.4,3.5,0.6,5.8,0.6c2.2,0,4-0.1,5.4-0.3c1.4-0.2,2.6-0.6,3.5-1c0.9-0.4,1.5-0.9,1.9-1.5c0.4-0.6,0.6-1.2,0.6-1.9
			c0-1.2-0.5-2.1-1.5-2.8c-1-0.7-2.3-1.2-3.9-1.6s-3.5-0.7-5.5-0.9c-2.1-0.2-4.2-0.5-6.4-0.8s-4.3-0.7-6.4-1.3
			c-2.1-0.5-3.9-1.3-5.5-2.4s-2.9-2.4-3.9-4.1C162.5,83.6,162,81.5,162,79z"/>
	</g>
	<path class="st1" d="M13,21.2h-0.1C12.6,20.4,12.7,20.4,13,21.2z"/>
	<path class="st1" d="M44,32.2l-0.5,65.5c-0.2,0-0.3,0-0.5,0c-1.2,0-2.4,0.1-3.5,0.3c-0.9,0.2-1.7,0.4-2.6,0.7
		c-0.2,0.1-0.3,0.1-0.5,0.2c-1.7,0.7-3.4,1.6-4.8,2.8c1.6-53.4-21.5-69.5-21.5-69.5H44z"/>
	<path class="st1" d="M248,124.5v37.2c0,0-38.2-30.3-190.6-26.5c1.1-0.8,2.2-1.7,3.1-2.8c0.8-0.9,1.6-2,2.2-3c0.9-1.6,1.6-3.4,2-5.3
		L248,124.5z"/>
	<path class="st4" d="M61.3,120c0,0.4,0,0.7,0,1.1c0,0.6-0.1,1.2-0.2,1.8c0,0.3-0.1,0.6-0.2,0.9c-0.4,1.9-1.1,3.7-2,5.3
		c-0.6,1.1-1.4,2.1-2.2,3c-0.9,1-1.9,2-3.1,2.8c-3,2.1-6.6,3.4-10.6,3.4c-10.1,0-18.3-8.2-18.3-18.3c0-5.8,2.7-11,6.9-14.3
		c1.4-1.1,3-2.1,4.8-2.8c0.2-0.1,0.3-0.1,0.5-0.2c0.8-0.3,1.7-0.5,2.6-0.7c1.1-0.2,2.3-0.3,3.5-0.3c0.2,0,0.3,0,0.5,0
		c0.3,0,0.5,0,0.8,0c1,0.1,2,0.2,3,0.5l0.8,0.2C55.7,104.6,61.3,111.6,61.3,120z"/>
	<polygon class="st5" points="232,46.2 232,118.2 224,118.2 224,53.2 53,53.2 53,46.2 	"/>
</g>
<g id="Layer_2">
	<path class="st6" d="M237.5,47.7C237.5,47.7,237.5,47.7,237.5,47.7C237.5,47.7,237.5,47.7,237.5,47.7L237.5,47.7z"/>
	<path class="st6" d="M21.5-32.3h-0.1C21.1-33.1,21.2-33.1,21.5-32.3z"/>
	<polygon class="st7" points="194.7,4.7 194.7,88.1 167.9,88.1 167.9,30.3 40.9,30.3 40.9,4.7 	"/>
	<g>
		<path class="st3" d="M55.7,68.6c0,1.5,0.1,2.8,0.3,3.9c0.2,1.1,0.6,2,1.1,2.8c0.5,0.7,1.3,1.3,2.2,1.6c0.9,0.3,2.1,0.5,3.5,0.5
			c1.4,0,2.5-0.2,3.4-0.5c0.9-0.3,1.7-0.9,2.2-1.6c0.5-0.7,0.9-1.7,1.1-2.8c0.2-1.1,0.3-2.4,0.3-3.9v-32h14.4v32
			c0,3.1-0.4,5.9-1.1,8.3c-0.8,2.4-2,4.5-3.7,6.1c-1.7,1.7-3.9,2.9-6.6,3.8c-2.7,0.9-6.1,1.3-10.1,1.3c-4,0-7.3-0.4-10.1-1.3
			c-2.7-0.9-5-2.1-6.6-3.8c-1.7-1.7-2.9-3.7-3.7-6.1c-0.8-2.4-1.1-5.2-1.1-8.3v-32h14.4V68.6z"/>
		<path class="st3" d="M86.8,86.8V36.6h33.4v10.7h-18.9v11.3h13.9v10.7h-13.9v17.6H86.8z"/>
		<path class="st3" d="M120.9,50.6c0-1.7,0.4-3.5,1.1-5.3c0.7-1.8,1.9-3.4,3.5-4.9c1.6-1.5,3.7-2.7,6.3-3.6c2.6-0.9,5.7-1.4,9.5-1.4
			c4.1,0,7.5,0.4,10.3,1.3c2.8,0.9,5,2.1,6.7,3.6c1.7,1.5,2.8,3.2,3.4,5.2c0.6,2,0.8,4,0.6,6.2l-14.4,1.3c0.1-1,0-1.9-0.1-2.7
			c-0.2-0.8-0.5-1.6-1-2.2s-1.2-1.1-2-1.5c-0.8-0.4-1.9-0.5-3.2-0.5c-2.1,0-3.6,0.3-4.7,1c-1,0.7-1.5,1.6-1.5,2.9
			c0,1.1,0.4,2,1.2,2.7c0.8,0.7,1.8,1.3,3,1.8c1.3,0.5,2.7,1,4.3,1.4c1.6,0.4,3.3,0.9,5,1.4c1.7,0.5,3.3,1.2,5,1.9
			c1.6,0.8,3.1,1.7,4.3,2.9c1.3,1.2,2.3,2.6,3,4.2c0.8,1.7,1.2,3.7,1.2,6.1c0,1.7-0.4,3.5-1.1,5.4c-0.7,1.9-1.9,3.6-3.5,5.1
			c-1.6,1.5-3.7,2.8-6.3,3.8c-2.6,1-5.7,1.5-9.5,1.5c-4,0-7.4-0.4-10.2-1.3c-2.8-0.9-5-2.1-6.7-3.6c-1.7-1.5-2.9-3.3-3.5-5.4
			c-0.6-2-0.9-4.2-0.7-6.6l14.4-1.3c-0.1,1,0,2,0.2,2.9c0.2,0.9,0.5,1.7,1,2.4c0.5,0.7,1.2,1.2,2,1.6c0.8,0.4,1.9,0.6,3.1,0.6
			c2.2,0,3.8-0.4,4.7-1.3c1-0.9,1.5-2,1.5-3.4c0-1.2-0.4-2.1-1.2-2.8s-1.8-1.3-3-1.8c-1.3-0.5-2.7-0.9-4.3-1.2
			c-1.6-0.3-3.3-0.7-5-1.2c-1.7-0.4-3.3-1-5-1.7c-1.6-0.7-3.1-1.6-4.3-2.8c-1.3-1.2-2.3-2.6-3-4.3C121.3,55.3,120.9,53.1,120.9,50.6
			z"/>
	</g>
	<path class="st6" d="M35.3,4.7l-0.5,85.1c-0.7-0.6-1.5-1.1-2.3-1.6c-3.1-1.9-6.6-3.1-10.4-3.4c-0.5,0-1.1-0.1-1.6-0.1h-0.1
		c-5.9,0-11.3,2.2-15.4,5.9L5.5,4.7H35.3z"/>
	<path class="st6" d="M194.7,94.2l0,29.8l-156.5-0.4c3.9-4,6.2-9.2,6.2-14.8c0-0.5,0-1-0.1-1.5c0-0.5-0.1-1.1-0.2-1.6
		c-0.5-3.4-1.9-6.6-4-9.4c-0.7-0.9-1.4-1.7-2.2-2.5L194.7,94.2z"/>
	<path class="st6" d="M19.9,123.5c0.4,0,0.7,0,1,0c-0.1,0-0.3,0-0.4,0H19.9z"/>
	<path class="st6" d="M21.8,93.8c-0.6-0.1-1.2-0.1-1.9-0.1h0.6c0.2,0,0.3,0,0.5,0c0.2,0,0.3,0,0.5,0C21.6,93.7,21.7,93.8,21.8,93.8z
		"/>
	<path class="st6" d="M23.9,94.2c0.3,0.1,0.5,0.2,0.8,0.3c-0.6-0.2-1.2-0.4-1.8-0.5c0.3,0.1,0.6,0.1,0.8,0.2
		C23.9,94.2,23.9,94.2,23.9,94.2z"/>
	<path class="st6" d="M29.4,97.1c0.3,0.3,0.7,0.6,1,0.9c-0.2-0.2-0.4-0.4-0.7-0.6C29.6,97.3,29.5,97.2,29.4,97.1z"/>
	<path class="st6" d="M29.3,97C29.4,97,29.4,97,29.3,97c-0.2-0.2-0.4-0.3-0.6-0.5C28.9,96.7,29.1,96.8,29.3,97z"/>
	<path class="st8" d="M29.4,97.1c0.3,0.3,0.7,0.6,1,0.9c-0.2-0.2-0.4-0.4-0.7-0.6C29.6,97.2,29.5,97.1,29.4,97.1z"/>
	<path class="st8" d="M29.3,97C29.4,97,29.4,97,29.3,97c-0.2-0.2-0.4-0.3-0.6-0.5C28.9,96.7,29.1,96.8,29.3,97z"/>
	<path class="st8" d="M34.8,107.6c0-0.1,0-0.1,0-0.2c0-0.3,0-0.6-0.1-0.9C34.7,106.9,34.8,107.2,34.8,107.6z"/>
	<path class="st3" d="M38.9,106.6c0-0.4-0.1-0.9-0.1-1.3c-0.4-2.7-1.3-5.2-2.7-7.3c-1.4-2.2-3.4-4.1-5.6-5.5
		C28,91,25.2,90,22.2,89.8c-0.4,0-0.8-0.1-1.2-0.1h-0.1c-5.3,0-10.1,2.3-13.4,6c-0.6,0.7-1.2,1.4-1.7,2.2c-0.8,1.2-1.5,2.6-1.9,4
		c-0.6,1.8-1,3.8-1,5.8c0,3,0.7,5.9,2.1,8.4c3,5.7,9,9.6,15.9,9.6c2,0,3.8-0.3,5.6-0.9c1.6-0.5,3.1-1.3,4.5-2.2
		c0.6-0.4,1.2-0.9,1.8-1.4c3.7-3.3,6.1-8.1,6.1-13.5C38.9,107.4,38.9,107,38.9,106.6z M36,106.4C36,106.4,36,106.4,36,106.4
		C36,106.4,36,106.4,36,106.4c0-0.4-0.1-0.7-0.1-1C35.9,105.8,35.9,106.1,36,106.4z M34.8,101.7C34.8,101.7,34.8,101.7,34.8,101.7
		c-0.1-0.2-0.2-0.4-0.2-0.5C34.7,101.3,34.7,101.5,34.8,101.7z M24,92.8c0.3,0.1,0.6,0.1,0.8,0.2c0,0,0.1,0,0.1,0
		c0.3,0.1,0.5,0.2,0.8,0.3C25.2,93.1,24.6,92.9,24,92.8z M28.3,120.7C28.3,120.7,28.4,120.7,28.3,120.7c0,0-0.1,0.1-0.2,0.1
		c-0.1,0-0.2,0.1-0.3,0.1C28,120.9,28.2,120.8,28.3,120.7z M30.8,96.2c-0.1-0.1-0.2-0.2-0.3-0.3c0.4,0.3,0.7,0.6,1,0.9
		C31.3,96.6,31.1,96.4,30.8,96.2z M30.9,118.9C30.9,118.9,30.9,118.9,30.9,118.9c-0.1,0.1-0.1,0.1-0.1,0.1
		C30.8,118.9,30.9,118.9,30.9,118.9z M21.6,92.8c0.2,0,0.3,0,0.5,0c0.2,0,0.3,0,0.5,0.1c0.1,0,0.2,0,0.3,0c-0.6-0.1-1.3-0.1-1.9-0.1
		H21.6z M20.9,122.2c0.4,0,0.7,0,1,0c-0.1,0-0.3,0-0.4,0H20.9z"/>
	<path class="st8" d="M27.2,121.6C27.3,121.5,27.3,121.5,27.2,121.6c0,0-0.1,0.1-0.2,0.1C27.1,121.6,27.2,121.6,27.2,121.6z"/>
	<path class="st8" d="M29.7,119.8c0,0,0.1-0.1,0.1-0.1C29.8,119.7,29.8,119.7,29.7,119.8C29.7,119.8,29.7,119.8,29.7,119.8z"/>
	<path class="st8" d="M19.9,123.5c0.4,0,0.7,0,1,0c-0.1,0-0.3,0-0.4,0H19.9z"/>
	<path class="st8" d="M21.8,93.8c-0.6-0.1-1.2-0.1-1.9-0.1h0.6c0.2,0,0.3,0,0.5,0c0.2,0,0.3,0,0.5,0C21.6,93.7,21.7,93.8,21.8,93.8z
		"/>
	<path class="st8" d="M23.9,94.2c0.3,0.1,0.5,0.2,0.8,0.3c-0.6-0.2-1.2-0.4-1.8-0.5c0.3,0.1,0.6,0.1,0.8,0.2
		C23.9,94.2,23.9,94.2,23.9,94.2z"/>
	<path class="st8" d="M29.7,119.8c0,0,0.1-0.1,0.1-0.1C29.8,119.7,29.8,119.7,29.7,119.8C29.7,119.8,29.7,119.8,29.7,119.8z"/>
	<path class="st8" d="M29.3,97C29.4,97,29.4,97,29.3,97c-0.2-0.2-0.4-0.3-0.6-0.5C28.9,96.7,29.1,96.8,29.3,97z"/>
	<path class="st8" d="M29.4,97.1c0.3,0.3,0.7,0.6,1,0.9c-0.2-0.2-0.4-0.4-0.7-0.6C29.6,97.3,29.5,97.2,29.4,97.1z"/>
	<path class="st8" d="M34.8,107.6c0-0.1,0-0.1,0-0.2c0-0.3,0-0.6-0.1-0.9C34.7,106.9,34.8,107.2,34.8,107.6z"/>
</g>
</svg>
